<svg xmlns="http://www.w3.org/2000/svg" fill="none" viewBox="0 0 156 180">
  <path fill="#fff" d="M77.9 180v-30l-26-15v30l26 15ZM77.9 180v-30l26-15v30l-26 15ZM155.8 135l-25.9-15-26 15 26 15 25.9-15Z"/>
  <path fill="#fff" d="m155.8 135-25.9-15V90l25.9 15v30ZM103.9 75l-26-15-26 15 26 15 26-15Z"/>
  <path fill="#fff" d="m77.9 60-26-15-26 15 26 15 26-15ZM103.9 75l-26-15V30l26 15v30ZM155.8 45l-25.9 15v30l25.9-15V45Z"/>
  <path fill="#fff" d="m155.8 45-25.9 15-26-15 26-15 25.9 15ZM77.9 0v30l26 15V15l-26-15ZM77.9 0v30l-26 15V15l26-15ZM0 45l25.9 15 26-15-26-15L0 45Z"/>
  <path fill="#fff" d="m0 45 25.9 15v30L0 75V45ZM51.9 105l26 15 26-15-26-15-26 15Z"/>
  <path fill="#fff" d="m77.9 120 26 15 26-15-26-15-26 15ZM51.9 105l26 15v30l-26-15v-30ZM0 135l25.9-15V90L0 105v30Z"/>
  <path fill="#fff" d="m0 135 25.9-15 26 15-26 15L0 135Z"/>
</svg>